# xmcd
#
# Track frame offsets: 
#        150
#        26250
#        52800
#        63503
#        79125
#        90825
#        110088
#        125088
#        147413
#        159853
#        172238
#        186538
#        199528
#
# Disc length: 3232 seconds
#
# Revision: 0
# Processed by: cddbd v1.5.2PL0 Copyright (c) Steve Scherf et al.
# Submitted via: ExactAudioCopy v1.0b3
#
DISCID=af0c9e0d
DTITLE=Various Artist - Rosenbowle - Eine musikalische Mixtour
DYEAR=1993
DGENRE=folklore
TTITLE0=Bretter, die die Welt bedeuten
TTITLE1=Rosenbowle
TTITLE2=Dunkelrote Rosen
TTITLE3=In mir klingt ein Lied
TTITLE4=Rosenwalzer
TTITLE5=Es war einmal
TTITLE6=Auf der Heide blüh'n die letzten Rosen
TTITLE7=Harfenrhytmen
TTITLE8=Man muß nicht erst nach Böhmen
TTITLE9=Das Heideröslein
TTITLE10=Schenk deiner Frau doch hin und wieder rote Rosen
TTITLE11=Die letzte Rose
TTITLE12=Rosen aus dem Süden
EXTD=
EXTT0=
EXTT1=
EXTT2=
EXTT3=
EXTT4=
EXTT5=
EXTT6=
EXTT7=
EXTT8=
EXTT9=
EXTT10=
EXTT11=
EXTT12=
PLAYORDER=
